<svg xmlns="http://www.w3.org/2000/svg" xmlns:xlink="http://www.w3.org/1999/xlink" viewBox="0 0 55 120"><defs><style>.cls-1{fill:#0056bc;}.cls-1,.cls-2,.cls-3,.cls-4,.cls-5{fill-rule:evenodd;}.cls-2{fill:#21a9fd;}.cls-3{fill:#fefefe;}.cls-4,.cls-6{fill:#4b4b4d;}.cls-5{fill:url(#GradientFill_3);}</style><radialGradient id="GradientFill_3" cx="21.89" cy="29.33" r="21.29" gradientUnits="userSpaceOnUse"><stop offset="0" stop-color="#969697"/><stop offset="0.42" stop-color="#696768"/><stop offset="1" stop-color="#231f20"/></radialGradient></defs><g id="Layer_2" data-name="Layer 2"><g id="Layer_1-2" data-name="Layer 1"><path class="cls-1" d="M40.11,9.28l.22,13c2.41.5,3.2.32,3.44,2.64l-3.48-.48,0,93.87-3.76-.3-.42,4.91a31.77,31.77,0,0,1-6.27.81c-8.65.52-14.17-.25-22.88-.89l.08-4.77-3.65.1,0-93.72L0,24.93c.24-2.31,1-2.14,3.42-2.63l.3-13.21A12.35,12.35,0,0,1,5.26,3.72C8.43-1.61,29.06,0,34.4,1.17c4.1.88,5.66,3.52,5.71,8.11ZM21.89,30.85H22L36,30.9l-.13,13.45c.44-1.08-.21-11.59,1.37-19.37,1.51-7.44,1.52-9.34-9.29-10.37-1.9-.18-3.82-.29-5.74-.31h-.53c-1.92,0-3.84.13-5.74.31C5.08,15.64,5.09,17.54,6.6,25,8.18,32.76,7.53,43.27,8,44.35L7.84,30.9l13.93,0Z"/><path class="cls-2" d="M40.33,118.82l-3.42-.21-.42,4.91a35.1,35.1,0,0,1-6.61.72c-8.65.52-14.79-.25-23.5-.89l.08-4.77-3,.1c0,5,2,5.6,6.62,6.1a111.81,111.81,0,0,0,11.9.36c4,0,8.09-.08,11.88-.42C38.25,124.32,40.27,123.57,40.33,118.82Z"/><path class="cls-3" d="M12.55,3.26a54,54,0,0,1,9.24-.77,58.39,58.39,0,0,1,9.37.75.22.22,0,0,1,.11.1h0a0,0,0,0,1,0,0l0,.07,0,.05,0,.07,0,0,0,.08,0,0,.05.09.08.14V4l.06.11,0,0,.06.11,0,0,.06.12v0l.08.13h0L32,4.7h0l.08.15h0l.08.16h0l.09.15h0l.09.15v0l.08.15,0,0,.08.14,0,0,.08.14,0,0,.08.13,0,0,.07.13,0,0,0,0,.07.12,0,0,.07.12,0,0,.07.1v0l.07.1.06.08,0,.07.06.08.07.1,0,0,.08.11,0,.06.06.08.07.09.05.06.07.09.05.06.07.08.06.08,0,0,.07.08.06.07.06.07.07.07.06.06.07.07.06.06h0l.11.1v0l.12.1h0l.12.1h0l.13.1h0l.13.1h0l.13.09h0l.07,0,.07,0,.07,0,.06,0,.07,0,.07,0,.07,0,.06,0,.07,0,.07,0,.07,0,.07,0,.07,0H37l.07,0,.07,0h.06l.08,0,.07,0,.07,0,.07,0,.07,0,.06,0,.08,0,.07,0,.07,0L37.93,9,38,9l.07-.05.06-.06.08-.07a.46.46,0,0,1,.07-.07l.06-.07.1-.1,0,0h0c.05-.05.09-.11.14-.17a2.05,2.05,0,0,0,.16-.66h0v0h0a2.43,2.43,0,0,0,0-.27v0a2.58,2.58,0,0,0-.48-1.23h0a4.67,4.67,0,0,0-.55-.64l-.08-.08-.09-.07h0L37.5,5.2h0l-.09-.08-.09-.07h0L37.24,5l-.05,0-.06,0L37,4.83l-.09-.06h0l-.09-.06-.1-.07-.08,0,0,0a9.13,9.13,0,0,0-.88-.48h0a4,4,0,0,0-.47-.21l-.12-.05c-.32-.13-.64-.24-1-.34h0c-.25-.07-.5-.14-.74-.19C28.58,1.84,14.52,2,10.09,3.3h0l-.09,0h0l-.08,0-.11,0H9.62l-.07,0-.1,0-.11,0-.1,0h0l-.11,0-.08,0H9l-.1,0-.2.08-.1,0-.08,0,0,0-.07,0h0l-.1,0h0l-.07,0h0l-.06,0-.1,0H8L8,4,7.93,4l0,0-.09,0h0l-.07,0-.09,0-.08,0h0l-.08,0-.09.05-.07,0h0l-.07,0-.08.06-.07,0,0,0L7,4.64l-.07.06h0l-.08.06h0l-.07.06-.08.06h0l0,0L6.55,5l0,0h0l-.07.06h0l-.06,0h0l-.07.06-.06.07h0l-.06.06-.06.07,0,.06,0,0,0,.06H6l0,.07H6l0,.06,0,0,0,0h0l-.06.08,0,.08h0l-.08.12,0,0,0,.06-.05.08v0h0l0,.08h0l0,.08,0,.08,0,.08v0l0,.08,0,.09,0,.07v0l0,.07h0A4.58,4.58,0,0,0,5,8V8H5v.05H5v.1H5v0H5v.08H5l.14.14h0l.13.11h0l.06,0h0l.08.06.06.05.09.06.06,0h0L5.76,9l.07,0,.08,0h0l.06,0H6l.09,0,.06,0h0l.07,0h0l.08,0h0l.07,0h0l.08,0h0l.07,0,.08,0h1l.06,0,.08,0,.06,0h0l.07,0,.07,0H8l.06,0,.08,0h0l.07,0h0L8.28,9h0l.1,0,0,0h0l.11-.07h0l.12-.07h0l.12-.08h0l.07,0,.06,0H9l.06,0,.06-.05.06-.05h0l.07-.06h0l0,0,.09-.09h0l0,0,.09-.08v0l0,0L9.64,8h0l0,0,.1-.1,0,0h0l.09-.1h0l0,0,.09-.1,0,0,0,0,.08-.09h0l0,0,.08-.1,0,0,0,0,.08-.11,0,0,.08-.1,0,0,0,0,.08-.11,0,0h0l.07-.11,0,0h0l.08-.13,0,0h0l.1-.14v0h0L11,6.23h.05l0-.05h0l0,0h0l.09-.15h0l.06-.1h0l.09-.16h0l0,0h.07l0,0h0v0h0l.07-.14,0,0h0V5h0l0,0h0v0h.07l.06-.12,0,0,0-.11,0,0v0l0-.11h0l0-.1,0-.06V4h0V4h0v0h0v0h0v0h0v0h0l0-.12v0l.05-.11v0h0l0,0h0A.31.31,0,0,1,12.55,3.26Z"/><path class="cls-4" d="M4,24l1.21-.23C7,26.88,7.44,39.14,6.94,43.18c-3.2.43-2.38-5.64-2.51-8.12C4.24,31.51,4,27.59,4,24Z"/><path class="cls-5" d="M21.89,30.85h-.12l-13.93,0L8,44.35C7.53,43.27,8.18,32.76,6.6,25c-1.51-7.44-1.52-9.34,9.29-10.37,1.9-.18,3.82-.29,5.74-.31h.53c1.92,0,3.84.13,5.74.31,10.81,1,10.8,2.93,9.29,10.37-1.58,7.78-.93,18.29-1.37,19.37L36,30.9,22,30.85Z"/><path class="cls-4" d="M35.1,115.09c-12.11.41-14.27.41-26.38,0,0,3,.28,2.52,5.32,2.85s14.47.42,19.28-.25C35.26,117.39,35.09,117,35.1,115.09Z"/><rect class="cls-6" x="35.9" y="47.18" width="3.25" height="66" rx="1.62"/><rect class="cls-6" x="4.64" y="47.18" width="3.25" height="66" rx="1.62"/><path class="cls-4" d="M38.54,23.8l-.08.15a1.3,1.3,0,0,0-.08.17.89.89,0,0,0-.08.17c0,.07,0,.13-.08.19s0,.13-.07.2,0,.14-.08.22,0,.14-.07.22h0l-.07.23-.06.25a1.82,1.82,0,0,0-.07.25h0l-.06.26h0l-.06.28-.06.28-.06.29-.06.29,0,.31h0l-.05.31,0,.32-.05.32h0l0,.34h0l0,.33-.05.34,0,.35,0,.35,0,.35,0,.36,0,.36,0,.37,0,.36,0,.37,0,.37h0l0,.37,0,.37,0,.37,0,.37h0l0,.37,0,.37v.37l0,.37v.73h0v1.76h0v.34h0v1h0v.62c0,.21,0,.41,0,.6V41h0l0,.27h0v.27h0v.26h0l0,.25h0l0,.24h0v.23h0l0,.22h0l0,.2h0l0,.2h.55l.13,0h0l.12,0h0l.11,0h0l.11-.05h0l.1,0,.1-.06.1-.06h0l.09-.08a.3.3,0,0,0,.08-.08l.08-.09.08-.09a.61.61,0,0,0,.07-.1h0a.41.41,0,0,0,.07-.11h0l.07-.11h0l.06-.11,0-.12.06-.13h0a.69.69,0,0,1,0-.13s0-.09,0-.14h0l0-.14,0-.14,0-.15h0l0-.15h0l0-.15,0-.16,0-.16,0-.16,0-.17V40l0-.17,0-.17V35.06c.18-3.55.47-7.47.42-11Z"/></g></g></svg>