<svg xmlns="http://www.w3.org/2000/svg" fill = '#4ba79a'  height="37"  viewBox="524 0 500 1024" version="1.1">
    <path d="M951.50997 351.552955c3.209552-89.47009 2.873313-87.46794 2.842746-87.009433 0.152836-1.83403 6.602507-75.974687-5.670209-146.798806-12.425552-71.725851-93.184-91.487522-93.184-91.487522l-4.157134-0.168119-85.068418-3.224836v0.42794l-84.243104 3.194269-4.141851 0.183403s-80.773731 19.761672-93.199284 91.487522c-12.272716 70.824119-5.823045 144.949493-5.654925 146.783523-0.030567-0.42794-0.366806-2.460657 2.842746 86.994149 3.392955 94.345552-5.960597 327.007522-4.676776 355.282149 1.283821 28.24406-2.109134 88.109851 3.530508 103.913075 5.654925 15.818507 24.851104 92.633791 24.851104 92.633791s31.086806 59.437851 161.532179 50.573373v-0.351523c129.711761 8.558806 160.676299-50.619224 160.676299-50.619223s19.211463-76.815284 24.866388-92.649075c5.639642-15.78794 2.246687-75.669015 3.515224-103.913075 1.283821-28.24406-8.054448-260.921313-4.661493-355.251582z" fill="${fillColor}"/>
    <path d="M873.242746 270.274866c-30.414328-15.818507-106.985075-16.949493-106.985074-16.949493v-0.122269s-76.570746 1.130985-106.985075 16.949493c-30.414328 15.803224-41.60191 23.33803-39.50806 33.883702 2.109134 10.530388 24.820537 115.589731 24.820538 118.203223 0 2.659343 2.139701 7.168 13.999761 3.790329 11.844776-3.408239 107.672836-7.534806 107.672836-7.534806v0.137552s95.82806 4.141851 107.688119 7.519522c11.844776 3.408239 13.969194-1.130985 13.969194-3.759761s22.726687-107.688119 24.835821-118.218507c2.093851-10.560955-9.093731-18.095761-39.50806-33.898985z" fill="#121215"/>
    <path d="M927.407761 321.490149s-0.366806 120.862567 0 156.62615-0.366806 83.952716-2.995582 116.720716c-2.659343 32.768-8.665791 179.994746-8.665791 179.994746v2.995582s-18.81409-51.215284-22.589134-90.738627c-8.283701-38.789731-4.52394-134.434388 0-192.802388 1.879881-57.970627 30.490746-162.647881 34.250507-172.796179z" fill="#101114"/><path d="M880.074507 737.448119c-2.170269-13.541254-4.050149-9.59809-4.585074-10.729074-0.550209-1.115701-14.213731 2.537075-19.746388 3.958448-44.597493 7.916896-89.47009 5.93003-89.47009 5.930029v-0.137552s-44.872597 1.986866-89.470089-5.93003c-5.532657-1.40609-19.196179-5.104716-19.746388-3.973731-0.534925 1.130985-2.414806-2.812179-4.585075 10.744358s-13.52597 95.461254-12.700657 96.301851c0.81003 0.840597 27.831403 16.934209 75.684299 24.560716 10.545672 0.489075 50.81791 2.384239 50.81791 2.26197v0.122269c0 0.152836 40.272239-1.757612 50.817911-2.26197 47.852896-7.611224 74.874269-23.704836 75.684298-24.560716 0.81003-0.840597-10.545672-82.714746-12.700657-96.286568z" fill="#131417"/><path d="M924.152358 352.118448l11.982329 6.923462v11.584956h-11.982329z" fill="#0D0E13"/><path d="M846.802149 33.700299a12.135164 12.135164 0 0 0-3.392955-1.635344c-5.318687-1.558925-3.087284-1.069851 3.392955 1.635344z" fill="#C2C6C1"/><path d="M689.671642 32.477612a12.043463 12.043463 0 0 0-3.377672 1.635343c6.480239-2.705194 8.696358-3.209552 3.377672-1.635343z" fill="#C2C6C1"/><path d="M605.963463 321.902806s0.351522 120.862567 0 156.626149c-0.38209 35.778866 0.366806 83.952716 2.995582 116.736 2.64406 32.752716 8.665791 179.964179 8.665791 179.964179v3.010866s18.81409-51.215284 22.589134-90.75391c8.283701-38.789731 4.52394-134.419104 0-192.771821-1.879881-58.001194-30.490746-162.647881-34.250507-172.811463z" fill="#101114"/><path d="M595.509493 359.439284s-32.752716 13.006328-34.724299 25.982089-1.681194 14.397134 0 14.397134 36.43606-18.355582 36.43606-18.355582v-22.023641h-1.711761z" fill="#D14C32"/><path d="M561.060299 402.783522l-0.275105-2.965015 36.43606-18.355582v2.552359z" fill="#0D0E13"/><path d="M609.218866 352.531104l-11.997612 6.90818v11.569671h11.997612z" fill="#0D0E13"/><path d="M937.846448 359.04191s32.768 12.991045 34.739582 25.98209 1.681194 14.397134 0 14.397134c-1.696478 0-36.451343-18.355582-36.451343-18.355582v-22.023642h1.711761z" fill="#D14C32"/>
    <path d="M972.295642 402.386149l0.290388-2.949731-36.451343-18.355582v2.537074z" fill="#0D0E13"/></svg>