<svg xmlns="http://www.w3.org/2000/svg" xmlns:xlink="http://www.w3.org/1999/xlink" viewBox="0 0 58.69 131.35"><defs>
<style>.cls-1{fill:#0056bc;}.cls-1,.cls-2,.cls-3,.cls-4,.cls-5,.cls-6,.cls-7,.cls-8{fill-rule:evenodd;}.cls-2{fill:url(#GradientFill_1);}.cls-3{fill:#606062;}.cls-4{fill:#4b4b4d;}.cls-5{fill:#373435;}.cls-6{fill:url(#GradientFill_1-2);}.cls-7{fill:url(#GradientFill_1-3);}.cls-8{fill:#96989a;}</style>
<radialGradient id="GradientFill_1" cx="30.25" cy="19.78" r="45.26" gradientUnits="userSpaceOnUse"><stop offset="0" stop-color="#969697"/><stop offset="0.28" stop-color="#737172"/><stop offset="0.77" stop-color="#393637"/><stop offset="1" stop-color="#231f20"/></radialGradient><radialGradient id="GradientFill_1-2" cx="55.75" cy="25.99" r="2.11" xlink:href="#GradientFill_1"/><radialGradient id="GradientFill_1-3" cx="3.18" cy="25.74" r="1.97" xlink:href="#GradientFill_1"/></defs><g id="Layer_2" data-name="Layer 2"><g id="Layer_1-2" data-name="Layer 1"><path class="cls-1" d="M29.34,74.29h.12v0C37.71,74.18,43,75,49,77.72c1.73.9,4.79,2.64,6.42,2,.45-3.88-1-5.58-1.7-7.08-.28-12.09-.38-23.82-1.62-35.76-.29-2.83-1.35-6.66-1.84-9.26l2.91-1.84c.46-.3,1,.51,1.54.68a1.7,1.7,0,0,0,1.53-.22,4.91,4.91,0,0,0,2-2.06c.31-.67.6-1.37.35-1.87A2.92,2.92,0,0,0,55,20.93c-1.46.84-2.46,3.55-2.16,4.13l-2.72,1.79c0-.29-.08-.57-.1-.81-.4-4.69.9-9.82,0-13.64-.56-2.3-5.39-3-5.72-3.79L41.38,1.5A68.38,68.38,0,0,0,32.11.87C31.9.85,32,0,31.79,0c-.42,0-4.52,0-4.94,0-.2,0-.11.82-.31.84a67.69,67.69,0,0,0-9.23.62L14.38,8.61c-.33.8-5.15,1.49-5.72,3.79-.92,3.82.38,9,0,13.64,0,.24-.06.52-.1.81L5.81,25.06c.3-.58-.7-3.29-2.15-4.13A2.93,2.93,0,0,0,.09,22.28c-.24.5.05,1.2.35,1.87a4.93,4.93,0,0,0,2,2.06A1.7,1.7,0,0,0,4,26.43c.52-.17,1.07-1,1.53-.68l2.92,1.84c-.49,2.6-1.56,6.43-1.85,9.26C5.33,48.79,5.23,60.52,5,72.61c-.66,1.5-2.15,3.2-1.7,7.08,1.63.67,4.69-1.07,6.42-2,6-2.72,11.31-3.54,19.55-3.45v0h.12Z"/><path class="cls-2" d="M29.32,73H50.85q0,3,0,6h.53c0-2,0-4,0-5.94H52a.36.36,0,0,0,.35-.37h0A.37.37,0,0,0,52,72.2h-.62c-.07-6.64-.23-13.37-.6-20.07A218.4,218.4,0,0,0,48,26.22h0l0-.06a.2.2,0,0,0,0-.11h0a6.82,6.82,0,0,0-.89-2.23L40.49,1.37l-.38-.05,5.75,21.21-.46-.35a46.51,46.51,0,0,0-11.94-2L32.21.92C32.1.64,32,.35,31.87.08l.79,20C31.79,20,30.9,20,30,20v0h-.35v0H29v0h-.36v0c-.89,0-1.78.07-2.65.12l.81-20a5,5,0,0,0-.36.85L25.19,20.14a46.59,46.59,0,0,0-12,2l-.45.35L18.54,1.32l-.39.05L11.59,23.81A6.6,6.6,0,0,0,10.7,26h0l0,.11v.06h0A218.4,218.4,0,0,0,7.87,52.13c-.37,6.7-.53,13.43-.6,20.07H6.65a.37.37,0,0,0-.35.38h0a.36.36,0,0,0,.35.37h.62c0,2,0,4,0,5.94h.53q0-3,0-6H29.32Z"/><path class="cls-3" d="M30,74.48a16.37,16.37,0,0,1,14.13,7.59l0,0H15.84l.17-.27a16.38,16.38,0,0,1,14-7.35Zm7,56.87H23.36V101.91A6.64,6.64,0,0,1,24,99.1h-.4v-10H16.65V82.73h8.5v14.6a6.77,6.77,0,0,1,5-2.23h0a6.79,6.79,0,0,1,4.9,2.1V82.73h8.5V89.1H36.65v10h-.27a6.78,6.78,0,0,1,.61,2.81v29.44ZM10.8,125.63V129H49.36v-3.38Z"/><path class="cls-1" d="M44.37,90.47h5V82.1c-1.59-1.36-3.18-3.17-4.77-4.13l-.23-.16Z"/><path class="cls-1" d="M16,90.47H11v-10A19.48,19.48,0,0,1,14,78c.67-.46,1.34-.88,2-1.29Z"/><path class="cls-4" d="M39.93,128.73h9v.65a.67.67,0,0,1-.66.66H39.93Z"/><path class="cls-4" d="M20.43,128.73h-9v.65a.66.66,0,0,0,.65.66h8.35Z"/><path class="cls-5" d="M44.47,107.91h4.09c.21,0,.36.21.38.47.14,2.6.17,5.15.2,7.65s-.1,5-.2,7.5c0,.26-.17.48-.38.48H44.47c-.2,0-.36-.22-.37-.48-.08-2.52-.26-5-.23-7.57,0-2.7.12-5.17.23-7.58C44.11,108.12,44.27,107.91,44.47,107.91Z"/><path class="cls-5" d="M38.47,107.91h4.09c.21,0,.36.21.38.47.14,2.6.17,5.15.2,7.65s-.1,5-.2,7.5c0,.26-.17.48-.38.48H38.47c-.2,0-.36-.22-.37-.48-.08-2.52-.26-5-.23-7.57,0-2.7.12-5.17.23-7.58C38.11,108.12,38.27,107.91,38.47,107.91Z"/><path class="cls-5" d="M17.72,107.91h4.09c.21,0,.36.21.38.47.14,2.6.17,5.15.2,7.65s-.1,5-.2,7.5c0,.26-.17.48-.38.48H17.72c-.2,0-.36-.22-.37-.48-.08-2.52-.26-5-.23-7.57,0-2.7.12-5.17.23-7.58C17.36,108.12,17.52,107.91,17.72,107.91Z"/><path class="cls-5" d="M11.72,107.91h4.09c.21,0,.36.21.38.47.14,2.6.17,5.15.2,7.65s-.1,5-.2,7.5c0,.26-.17.48-.38.48H11.72c-.2,0-.36-.22-.37-.48-.08-2.52-.26-5-.23-7.57,0-2.7.12-5.17.23-7.58C11.36,108.12,11.52,107.91,11.72,107.91Z"/><path class="cls-5" d="M44.47,90.91h4.09a.41.41,0,0,1,.38.41c.14,2.24.17,4.44.2,6.59s-.1,4.31-.2,6.47a.41.41,0,0,1-.38.41H44.47a.41.41,0,0,1-.37-.41c-.08-2.18-.26-4.35-.23-6.53s.12-4.46.23-6.53A.4.4,0,0,1,44.47,90.91Z"/><path class="cls-5" d="M38.47,90.91h4.09a.41.41,0,0,1,.38.41c.14,2.24.17,4.44.2,6.59s-.1,4.31-.2,6.47a.41.41,0,0,1-.38.41H38.47a.41.41,0,0,1-.37-.41c-.08-2.18-.26-4.35-.23-6.53s.12-4.46.23-6.53A.4.4,0,0,1,38.47,90.91Z"/><path class="cls-5" d="M17.72,90.91h4.09a.41.41,0,0,1,.38.41c.14,2.24.17,4.44.2,6.59s-.1,4.31-.2,6.47a.41.41,0,0,1-.38.41H17.72a.41.41,0,0,1-.37-.41c-.08-2.18-.26-4.35-.23-6.53s.12-4.46.23-6.53A.4.4,0,0,1,17.72,90.91Z"/><path class="cls-5" d="M11.72,90.91h4.09a.41.41,0,0,1,.38.41c.14,2.24.17,4.44.2,6.59s-.1,4.31-.2,6.47a.41.41,0,0,1-.38.41H11.72a.41.41,0,0,1-.37-.41c-.08-2.18-.26-4.35-.23-6.53s.12-4.46.23-6.53a.4.4,0,0,1,.37-.41ZM3.17,79.53a8.73,8.73,0,0,0-.56,3.26c-.33,1,.32,1.26,1.82,1.43a4.92,4.92,0,0,0,3.3-1C9.82,82,11.9,79.23,14,78c1.6-1.1,3.17-2,4.74-2.91a34.7,34.7,0,0,0-9.22,2.85c-1.71.89-4.73,2.63-6.32,2,0-.12,0-.24,0-.35Zm52.26,0A8.93,8.93,0,0,1,56,82.79c.33,1-.32,1.26-1.82,1.43a4.93,4.93,0,0,1-3.3-1c-2.08-1.26-4.17-4-6.26-5.25-1.6-1.1-3.17-2-4.74-2.91a34.87,34.87,0,0,1,9.23,2.85c1.7.89,4.72,2.63,6.31,2Z"/><path class="cls-6" d="M55.5,22.12h0a1.11,1.11,0,0,0-.63.13c-.53.7-1,1.38-1.53,2.17a.79.79,0,0,0,0,.69l1.53.93a2.4,2.4,0,0,0,.79.11.93.93,0,0,0,.56-.11,6.3,6.3,0,0,0,2-1.92.89.89,0,0,0-.16-.69,8.92,8.92,0,0,0-2.34-1.31A1,1,0,0,0,55.5,22.12Z"/><path class="cls-1" d="M29.32,23.74h.8A54.71,54.71,0,0,1,47.52,26a214,214,0,0,1,2.9,26.16c.37,6.7.53,13.42.6,20H7.63c.07-6.61.22-13.33.6-20A214,214,0,0,1,11.13,26a54.71,54.71,0,0,1,17.4-2.27h.79Z"/><path class="cls-7" d="M.82,23.87A.86.86,0,0,1,1,23.18a8.83,8.83,0,0,1,2.35-1.31,1.09,1.09,0,0,1,.62.13c.53.7,1,1.38,1.53,2.17a.79.79,0,0,1,0,.69l-1.53.93a1.42,1.42,0,0,1-1.09,0A6.1,6.1,0,0,1,.82,23.87Z"/><polygon class="cls-8" points="24.32 59.45 21.96 59.45 25.11 30.97 25.79 30.95 24.32 59.45"/><polygon class="cls-8" points="34.46 59.45 36.82 59.45 33.68 30.97 32.99 30.95 34.46 59.45"/></g></g></svg>