<svg xmlns="http://www.w3.org/2000/svg" viewBox="0 0 832.33 728.56"><defs><style>.cls-1{}</style></defs><g id="Layer_2" data-name="Layer 2"><g id="Layer_1-2" data-name="Layer 1"><path class="cls-1" d="M350.79,377.65v69.8H329v-69.8H312.14V357.47h55.38v20.18Z"></path><path class="cls-1" d="M416.88,414.75v32.7h-21.8v-32.7l-25.53-57.28h23.67l12.67,36.15,12.79-36.15h23.45Zm2.87-75.38a19,19,0,0,1-1.63,2.31,26.16,26.16,0,0,1-1.92,2.08l-1.91,1.9a21,21,0,0,0-1.75,1.84,7.36,7.36,0,0,0-1.91,4h-9.81a11,11,0,0,1,1.58-5.35,17.08,17.08,0,0,1,1.58-2.13c.45-.56,1-1.21,1.74-2l1.81-1.84c.64-.71,1.14-1.33,1.52-1.84a6.62,6.62,0,0,0,1.46-3.86q0-3.68-3.26-3.68a3.28,3.28,0,0,0-3.22,1.78,9.42,9.42,0,0,0-.67,3.92H393.05v-.53l-.06-.54a14.34,14.34,0,0,1,4.34-10.74,14.54,14.54,0,0,1,10.48-4q8.63,0,12.17,7.13a12.05,12.05,0,0,1-.23,11.51Z"></path><path class="cls-1" d="M405.42,711H358.16L298.22,521.87h47l36.13,132.65H382l36.37-132.65H465.6Z"></path><path class="cls-1" d="M597.32,711,529,596l-.6.25L529.69,711h-44V521.87H525.3l69.41,118.92.48-.5-2-118.42h43.94V711Z"></path><path class="cls-1" d="M809.23,684.84Q785.53,711,744.79,711H677V635.42H660.81V593H677V521.87h60.41a158.36,158.36,0,0,1,23.1,1.49,86.11,86.11,0,0,1,20.61,5.12q20.37,8.12,34.71,28.7,16.46,24.09,16.46,58.78Q832.33,659.13,809.23,684.84ZM776.06,579.27q-11.25-15-33.28-15h-19.9V593h26.18v42.42H722.88v33.19h19.66q22.51,0,33.76-14.47,10.19-13.23,10.19-37.44Q786.49,592.86,776.06,579.27Z"></path><path class="cls-1" d="M3.4,728.56v-77q18.2-12.51,30.34-21.22,16-11.5,28.88-22a408.39,408.39,0,0,0,53.15-51.13q9.24-10.49,17-21a279.46,279.46,0,0,0,16.5-24.8q17.23-29.93,17.24-53.19,0-37.57-34.72-37.58-22.8,0-33.25,19.69-7.76,14.57-9,41.42H0q.74-28.12,4.86-46.28a132.9,132.9,0,0,1,17-42.7,118.9,118.9,0,0,1,49.28-44.75q29.13-14.31,64.07-14.32,37.88,0,67.72,16.37A108.39,108.39,0,0,1,251,401.79q9.46,22.5,9.47,44.49A163,163,0,0,1,249,505.6q-10,26.07-29.13,52.67a415.9,415.9,0,0,1-39.32,46.28q-9.47,9.72-21.35,21Q151,633.7,138.11,645.2H262.86v83.36Z"></path><path class="cls-1" d="M118.58,160.89a37.75,37.75,0,0,1-17.92,9.32,56.07,56.07,0,0,1-9.53,1.14c-1.5.05-3.21.11-5.16.16H43.44V48.69H79.36q6.77,0,10.31.24a54.46,54.46,0,0,1,9.84,1.38,31.6,31.6,0,0,1,17.15,10.37q6.91,8,6.92,20.25,0,16.69-13.54,24.71,19.23,7,19.23,28.52Q129.27,151.34,118.58,160.89ZM91.58,78q-2.76-1.78-8.15-1.79H72V95.35H83.28q11.85,0,11.85-9.8C95.13,82,93.94,79.48,91.58,78Zm4.85,45.53c-2.26-1.3-5.43-2-9.54-2H72V144H86.74q6.3,0,9.77-2.43,4.23-3,4.22-9.31C100.73,128.16,99.3,125.28,96.43,123.55Z"></path><path class="cls-1" d="M209.86,171.51v-10h-.31a21.73,21.73,0,0,1-11,10.13,34.8,34.8,0,0,1-14.54,3q-19.76,0-32.07-14.34-11.83-13.94-11.84-34.92,0-20.65,12.07-34.68Q164.72,76.24,184,76.23a33.88,33.88,0,0,1,14.46,3.08,23.62,23.62,0,0,1,11.07,9.89h.31V79.39H236v92.12Zm-6.22-62.87A20.71,20.71,0,0,0,187.87,102a19.91,19.91,0,0,0-15.61,7q-6,6.74-6,16.77a23.18,23.18,0,0,0,6.23,16.37,21.4,21.4,0,0,0,31.22.08q6.15-6.72,6.15-16.77T203.64,108.64ZM206.17,51A30.7,30.7,0,0,1,204,54.2c-.73.86-1.6,1.81-2.62,2.83l-2.7,2.6a31.9,31.9,0,0,0-2.3,2.51,10,10,0,0,0-2.62,5.51H180.33a14.85,14.85,0,0,1,2.16-7.29,23.73,23.73,0,0,1,2.15-2.92c.61-.76,1.41-1.65,2.38-2.68l2.39-2.51c.86-1,1.58-1.81,2.15-2.51a9.06,9.06,0,0,0,2-5.26q0-5-4.46-5a4.46,4.46,0,0,0-4.38,2.43,12.84,12.84,0,0,0-.93,5.35H169.72a4.15,4.15,0,0,0-.08-.73v-.73a19.51,19.51,0,0,1,5.93-14.66,19.9,19.9,0,0,1,14.3-5.51q11.76,0,16.61,9.72A16.43,16.43,0,0,1,206.17,51Z"></path><path class="cls-1" d="M331.61,160.41Q318.15,174.34,298,174.35t-33.53-13.94q-13.53-13.93-13.54-35t13.54-35.08Q277.85,76.4,298,76.4t33.61,13.93q13.53,13.94,13.53,35.08T331.61,160.41Zm-18.54-51.28a19.7,19.7,0,0,0-30.07,0,25.38,25.38,0,0,0,0,32.56,19.85,19.85,0,0,0,30.07,0,25.31,25.31,0,0,0,0-32.56Z"></path><path class="cls-1" d="M463.27,171.51V121.44q0-8.67-2.77-13.37-3.45-5.91-11.31-5.91t-11.53,5.18q-3.07,4.45-3.08,13v51.12H408.44V48.69h26.14V87.9h.31a20.35,20.35,0,0,1,9.69-9.07,30,30,0,0,1,12.84-2.6q15.54,0,23.77,10.13a33.94,33.94,0,0,1,7.23,16,55.85,55.85,0,0,1,.84,8.59c.05,1.3.11,2.81.16,4.54v56.06Z"></path><path class="cls-1" d="M508,69.67v-21H534.1v21Zm0,101.84V79.39H534.1v92.12Z"></path><path class="cls-1" d="M639.61,133.83H574.09q2.46,17.43,20.46,17.43,9.38,0,15.91-8.59h26.77a54.23,54.23,0,0,1-16.77,22.85,41.31,41.31,0,0,1-25.91,9q-19.15,0-32.69-14.34t-13.61-34.44q0-20.25,13.3-34.75Q575,76.24,594.08,76.23A42.82,42.82,0,0,1,627.23,91q13,14.51,13,35.56A40,40,0,0,1,639.61,133.83ZM601.78,65.3l-7.23-9.64-7.24,9.64H561.78l24.61-27.55h17L627,65.3Zm12.3,50q-3.24-15.8-19.84-15.8t-19.85,15.8Zm23.68-89.84a28.8,28.8,0,0,1-2.22,3.16c-.72.86-1.6,1.81-2.62,2.83L630.3,34a26.57,26.57,0,0,0-2.38,2.52,9.6,9.6,0,0,0-2.54,5.51H612a14.33,14.33,0,0,1,2.08-7.29,22.31,22.31,0,0,1,2.15-2.92c.61-.76,1.41-1.65,2.39-2.67l2.46-2.52a31.13,31.13,0,0,0,2.07-2.51,8.84,8.84,0,0,0,2.08-5.27c0-3.34-1.49-5-4.46-5-2.15,0-3.62.81-4.38,2.43a11.36,11.36,0,0,0-.92,5.35H601.39a3.26,3.26,0,0,1-.08-.73v-.73a19.67,19.67,0,0,1,5.85-14.66A20,20,0,0,1,621.54,0q11.69,0,16.61,9.72A16.32,16.32,0,0,1,640,17.18,16,16,0,0,1,637.76,25.44Z"></path><path class="cls-1" d="M762.74,171.51V122.58q0-9.48-2.15-14-3.08-6.41-11.23-6.4t-11.62,5.59q-2.91,4.62-2.92,13.45v50.31H708.68V121.44q0-8.58-2.39-13.2-3.15-6.09-10.69-6.08-8.29,0-11.92,6.15-2.85,4.88-2.84,14.27v48.93H654.69V79.39h24.38V89.2h.38a22.4,22.4,0,0,1,10.15-10,30.59,30.59,0,0,1,13.93-3q16.76,0,25.22,16.45,9.84-16.44,27.68-16.45,14.39,0,23,9.32a33.4,33.4,0,0,1,8.46,16.53,70.1,70.1,0,0,1,.92,9.15c.05,1.35.08,3,.08,4.86v55.42Z"></path><path class="cls-1" d="M50.19,230.4v28H39.91v-28H34.83v-8.21h5.08V210.11H50.19v12.08h5v8.21Z"></path><path class="cls-1" d="M80.37,231.84a11.66,11.66,0,0,0-5.75,1.27c-1.58,1-2.36,2.81-2.36,5.38V258.4H62V222.19h9.64V226h.16q2.44-5.1,8.59-5.1Z"></path><path class="cls-1" d="M112.79,258.4v-3.92h-.12a8.49,8.49,0,0,1-4.32,4,13.6,13.6,0,0,1-5.71,1.18A15.84,15.84,0,0,1,90,254a20.5,20.5,0,0,1-4.65-13.73,20.14,20.14,0,0,1,4.74-13.64,15.83,15.83,0,0,1,12.52-5.7,13.25,13.25,0,0,1,5.68,1.22,9.24,9.24,0,0,1,4.35,3.88h.12v-3.85h10.29V258.4Zm-2.44-24.72a8.15,8.15,0,0,0-6.2-2.61A7.82,7.82,0,0,0,98,233.81a9.54,9.54,0,0,0-2.36,6.59,9.14,9.14,0,0,0,2.45,6.44,8.43,8.43,0,0,0,12.28,0,9.4,9.4,0,0,0,2.41-6.59A9.29,9.29,0,0,0,110.35,233.68Zm-10.19-15.79-2.91-6.4,14.88-8.41,3.27,7.71Z"></path><path class="cls-1" d="M167.76,244.64a19,19,0,0,1-6.51,10.8,17.48,17.48,0,0,1-11.51,4.14,17.21,17.21,0,0,1-13-5.64,20.33,20.33,0,0,1-.12-27.36,17,17,0,0,1,12.91-5.64,17.9,17.9,0,0,1,11.73,4.18,18.22,18.22,0,0,1,6.46,11h-10.4a7.8,7.8,0,0,0-7.68-5.1,7.08,7.08,0,0,0-5.8,2.77,9.9,9.9,0,0,0-2.11,6.44,9.63,9.63,0,0,0,2.2,6.49,7.47,7.47,0,0,0,6,2.68,7.82,7.82,0,0,0,7.43-4.81Z"></path><path class="cls-1" d="M197.42,258.4V238.72a10.5,10.5,0,0,0-1.09-5.26,4.75,4.75,0,0,0-4.44-2.32,5.13,5.13,0,0,0-4.54,2,9,9,0,0,0-1.21,5.12v20.1H175.86V210.11h10.28v15.42h.12a8.06,8.06,0,0,1,3.81-3.57,11.83,11.83,0,0,1,5.05-1q6.1,0,9.34,4a13.25,13.25,0,0,1,2.84,6.27,22.11,22.11,0,0,1,.34,3.38c0,.5,0,1.1.06,1.78v22Z"></path><path class="cls-1" d="M260.6,258.4V238.62a11,11,0,0,0-1-5.26q-1.23-2.22-4.41-2.22-3.36,0-4.75,2.16a10.24,10.24,0,0,0-1.15,5.42V258.4H239.05V222.19h9.58V226h.15q3-5.1,9.34-5.1a12.81,12.81,0,0,1,8.8,3.16,11,11,0,0,1,3.21,5.32,23.2,23.2,0,0,1,.75,6.34V258.4Z"></path><path class="cls-1" d="M302.2,258.4V238.72a10.5,10.5,0,0,0-1.09-5.26,4.75,4.75,0,0,0-4.45-2.32,5.16,5.16,0,0,0-4.54,2,9.11,9.11,0,0,0-1.2,5.12v20.1H280.64V210.11h10.28v15.42H291a8,8,0,0,1,3.81-3.57,11.8,11.8,0,0,1,5-1q6.11,0,9.34,4a13.25,13.25,0,0,1,2.84,6.27,22.11,22.11,0,0,1,.34,3.38c0,.5,0,1.1.05,1.78v22Z"></path><path class="cls-1" d="M322.23,218.36v-8.25h10.28v8.25Zm0,40V222.19h10.28V258.4Z"></path><path class="cls-1" d="M376.47,243.59H350.72c.65,4.56,3.32,6.85,8,6.85a7.65,7.65,0,0,0,6.26-3.38h10.52a21.27,21.27,0,0,1-6.59,9,16.23,16.23,0,0,1-10.19,3.54,17,17,0,0,1-12.85-5.64,18.89,18.89,0,0,1-5.35-13.54,19.54,19.54,0,0,1,5.23-13.66,17.27,17.27,0,0,1,25.82,0,20.23,20.23,0,0,1,5.11,14A15,15,0,0,1,376.47,243.59ZM361.6,216.65l-2.84-3.8-2.84,3.8h-10l9.67-10.83h6.69l9.28,10.83Zm4.84,19.65q-1.28-6.21-7.8-6.22c-4.35,0-7,2.08-7.8,6.22ZM353.71,274v-9.84h9.86V274Z"></path><path class="cls-1" d="M427.36,258.4V239.16a13.61,13.61,0,0,0-.85-5.51,4.46,4.46,0,0,0-4.41-2.51,5,5,0,0,0-4.57,2.19,9.92,9.92,0,0,0-1.15,5.29V258.4H406.1V238.72a11.53,11.53,0,0,0-.94-5.2,4.34,4.34,0,0,0-4.2-2.38,5,5,0,0,0-4.69,2.42,11.33,11.33,0,0,0-1.11,5.6V258.4H384.88V222.19h9.58V226h.16a8.75,8.75,0,0,1,4-3.92,12,12,0,0,1,5.47-1.18q6.59,0,9.91,6.47,3.87-6.47,10.88-6.47a11.71,11.71,0,0,1,9.05,3.67,13.08,13.08,0,0,1,3.32,6.49,29.73,29.73,0,0,1,.37,3.6c0,.53,0,1.17,0,1.91V258.4Z"></path><path class="cls-1" d="M490.32,256.52a15.05,15.05,0,0,1-9.62,3.12,14.52,14.52,0,0,1-9.39-3,12.49,12.49,0,0,1-4.6-9h10.22a3.5,3.5,0,0,0,3.9,3.35,4.21,4.21,0,0,0,2.39-.7,2.43,2.43,0,0,0,1.21-2.13,3.24,3.24,0,0,0-1.64-2.78l-1.51-.76-5.95-2.26a15.86,15.86,0,0,1-5.63-3.41,8.25,8.25,0,0,1-2.57-6.05,10.84,10.84,0,0,1,4.18-8.79,14,14,0,0,1,9.16-3.16,13.76,13.76,0,0,1,8.92,2.84,11.83,11.83,0,0,1,4.26,8.6h-10.1c-.06-1.83-1.13-2.74-3.21-2.74s-2.93.81-2.93,2.42c0,1.21.91,2.2,2.72,3a24.71,24.71,0,0,0,2.75,1l.39.09,2.79.93a23.32,23.32,0,0,1,3.17,1.33,11.49,11.49,0,0,1,2.75,2,9.26,9.26,0,0,1,2.72,7A11.1,11.1,0,0,1,490.32,256.52Z"></path><path class="cls-1" d="M528.08,258.4v-3.92H528a8.5,8.5,0,0,1-4.31,4,13.65,13.65,0,0,1-5.72,1.18A15.86,15.86,0,0,1,505.31,254a20.5,20.5,0,0,1-4.65-13.73,20.19,20.19,0,0,1,4.74-13.64,15.83,15.83,0,0,1,12.52-5.7,13.25,13.25,0,0,1,5.68,1.22A9.24,9.24,0,0,1,528,226h.13v-3.85h10.28V258.4Zm-2.45-24.72a8.13,8.13,0,0,0-6.2-2.61,7.78,7.78,0,0,0-6.13,2.74,9.5,9.5,0,0,0-2.36,6.59,9.1,9.1,0,0,0,2.45,6.44,8.42,8.42,0,0,0,12.27,0,9.4,9.4,0,0,0,2.42-6.59A9.29,9.29,0,0,0,525.63,233.68Zm1-22.64a9.74,9.74,0,0,1-.87,1.24c-.28.34-.63.71-1,1.11l-1.06,1q-.57.59-.9,1a4,4,0,0,0-1,2.17h-5.26a5.93,5.93,0,0,1,.84-2.87,11.58,11.58,0,0,1,.85-1.15c.24-.29.55-.64.94-1.05l.94-1c.34-.39.62-.71.85-1a3.57,3.57,0,0,0,.78-2.07c0-1.32-.59-2-1.76-2a1.75,1.75,0,0,0-1.72.95,5.14,5.14,0,0,0-.36,2.1H512.3c0-.08,0-.18,0-.29V209a7.66,7.66,0,0,1,2.32-5.76,7.81,7.81,0,0,1,5.63-2.17,6.7,6.7,0,0,1,6.53,3.82,6.49,6.49,0,0,1-.13,6.18Z"></path><path class="cls-1" d="M569.86,258.4V238.62a11.15,11.15,0,0,0-1-5.26q-1.25-2.22-4.41-2.22-3.36,0-4.75,2.16a10.14,10.14,0,0,0-1.15,5.42V258.4H548.3V222.19h9.59V226H558q3-5.1,9.34-5.1a12.84,12.84,0,0,1,8.8,3.16,10.94,10.94,0,0,1,3.2,5.32,23.17,23.17,0,0,1,.76,6.34V258.4Z"></path><path class="cls-1" d="M644.22,253.94a15.17,15.17,0,0,1-12.12,5.7,13.09,13.09,0,0,1-10.34-4.49v15.32H611.49V222.19h9.64v4h.21a12.68,12.68,0,0,1,10.71-5.23,15,15,0,0,1,12.39,5.93,21.54,21.54,0,0,1,4.38,13.79A20,20,0,0,1,644.22,253.94Zm-8.12-20.16a8.06,8.06,0,0,0-6.18-2.71,7.94,7.94,0,0,0-6.13,2.71,9.93,9.93,0,0,0,0,13.06,8.38,8.38,0,0,0,12.27,0,9.2,9.2,0,0,0,2.48-6.5A9.29,9.29,0,0,0,636.1,233.78Z"></path><path class="cls-1" d="M678.66,258.4V238.72a10.61,10.61,0,0,0-1.08-5.26,4.77,4.77,0,0,0-4.45-2.32,5.14,5.14,0,0,0-4.54,2,9,9,0,0,0-1.21,5.12v20.1H657.1V210.11h10.28v15.42h.12a8.06,8.06,0,0,1,3.81-3.57,11.83,11.83,0,0,1,5.05-1q6.1,0,9.34,4a13.36,13.36,0,0,1,2.85,6.27,23.58,23.58,0,0,1,.33,3.38c0,.5,0,1.1.06,1.78v22Z"></path><path class="cls-1" d="M724.52,258.4v-3.92h-.12a8.49,8.49,0,0,1-4.32,4,13.6,13.6,0,0,1-5.71,1.18A15.84,15.84,0,0,1,701.76,254a20.5,20.5,0,0,1-4.65-13.73,20.14,20.14,0,0,1,4.74-13.64,15.83,15.83,0,0,1,12.52-5.7,13.25,13.25,0,0,1,5.68,1.22A9.24,9.24,0,0,1,724.4,226h.12v-3.85h10.29V258.4Zm-4.8-41.75-2.88-3.8-2.84,3.8H704l9.68-10.83h6.68l9.28,10.83Zm2.36,17a8.15,8.15,0,0,0-6.2-2.61,7.82,7.82,0,0,0-6.14,2.74,9.54,9.54,0,0,0-2.36,6.59,9.14,9.14,0,0,0,2.45,6.44,8.43,8.43,0,0,0,12.28,0,9.4,9.4,0,0,0,2.41-6.59A9.29,9.29,0,0,0,722.08,233.68Zm14.33-31.49a13.74,13.74,0,0,1-.88,1.24,14,14,0,0,1-1,1.11l-1,1a11.75,11.75,0,0,0-.91,1,3.9,3.9,0,0,0-1,2.16h-5.26a5.81,5.81,0,0,1,.85-2.86,10,10,0,0,1,.84-1.15c.24-.3.56-.65.94-1l.93-1c.35-.38.63-.71.85-1a3.59,3.59,0,0,0,.79-2.06c0-1.32-.58-2-1.75-2a1.76,1.76,0,0,0-1.73,1,5.07,5.07,0,0,0-.36,2.1h-5.53a1.06,1.06,0,0,0,0-.29v-.29a7.67,7.67,0,0,1,2.34-5.76,7.82,7.82,0,0,1,5.62-2.16,6.7,6.7,0,0,1,6.53,3.82,6.45,6.45,0,0,1,.73,2.93A6.54,6.54,0,0,1,736.41,202.19Z"></path><path class="cls-1" d="M787.23,258.4V239.16a13.61,13.61,0,0,0-.85-5.51,4.46,4.46,0,0,0-4.41-2.51,5,5,0,0,0-4.57,2.19,9.92,9.92,0,0,0-1.15,5.29V258.4H766V238.72a11.53,11.53,0,0,0-.94-5.2,4.34,4.34,0,0,0-4.2-2.38,5,5,0,0,0-4.69,2.42,11.33,11.33,0,0,0-1.11,5.6V258.4H744.75V222.19h9.58V226h.16a8.75,8.75,0,0,1,4-3.92,12,12,0,0,1,5.47-1.18q6.59,0,9.91,6.47,3.87-6.47,10.88-6.47a11.71,11.71,0,0,1,9,3.67,13.08,13.08,0,0,1,3.32,6.49,29.73,29.73,0,0,1,.37,3.6c0,.53,0,1.17,0,1.91V258.4Z"></path></g></g></svg>