<svg xmlns="http://www.w3.org/2000/svg" viewBox="0 0 812.74 717.34"><defs><style>.cls-z{font-size:166.82px;font-family:UTM_neo_sans_intel;font-weight:700;}.cls-z,.cls-zz{}</style></defs><g id="Layer_2" data-name="Layer 2"><g id="Layer_1-2" data-name="Layer 1"><text class="cls-z" transform="translate(0 672.14)">9001:2015</text><path class="cls-zz" d="M466.52,230.6c.41-19.39,3.28-38.16,12.21-55.64,9.64-18.86,24.4-32.44,43.94-40.15,32.48-12.82,65.64-13.75,98.47-1.72,34.25,12.55,54,37.92,60.44,73.54,4,22.11,3.22,44.13-4,65.56-10,29.64-31,48-60.38,57.24-21.27,6.67-43.09,7.55-65,4.14-25.48-4-47.86-14.07-64.42-34.69-11.68-14.54-17.64-31.44-19.79-49.78C467.24,243,467,236.77,466.52,230.6Zm74.84-1.07.65.06c0,1.5,0,3,0,4.48.17,11.72.66,23.4,4.81,34.55,3.35,9,9.44,14.89,19.32,15.8a109.1,109.1,0,0,0,16.46.47c12.53-.76,19.56-6,22.87-18.17a129.55,129.55,0,0,0,4-25.7c1-15.11,1-30.29-3.43-45-3.05-10.15-8.54-18.25-20-19.75a89.66,89.66,0,0,0-17.49-.44c-16.09,1.07-21.84,9.11-24.33,23.67C542.58,209.37,542.28,219.5,541.36,229.53Z"></path><path class="cls-zz" d="M315.33,315.53v15.22H271.09V257h10.09c8.83,0,17.66-.1,26.49.09a5.9,5.9,0,0,1,4.11,2.13c13.77,19.25,33,28,56.07,29.39,8.31.5,16.53.13,24.35-3.11a21.16,21.16,0,0,0,5.31-3.08c3-2.43,3-4.71-.32-6.48a93.12,93.12,0,0,0-15.33-6.81c-21.93-7-44.13-13.21-65.9-20.7-17.46-6-31.76-16.64-40.74-33.44-11-20.48-8.51-58.62,20.89-76.74,16.35-10.08,34.39-12.88,53.11-12.43,21.56.52,41.92,5.74,60.51,17a12.19,12.19,0,0,0,1.75.66v-12.3h42.24c.07,1.27.2,2.48.2,3.7,0,20.53-.05,41.06.08,61.59,0,3-.8,3.93-3.84,3.88-11-.18-22,0-33-.14a5.42,5.42,0,0,1-3.77-1.5c-11.41-14.31-26.66-22.13-44.13-26-10-2.21-20.18-3.35-30.33-.72-4,1-8.47,2.5-8.85,7.4-.37,4.67,3.77,6.74,7.37,8,8.95,3.19,18.05,6,27.13,8.73,15.34,4.67,30.92,8.64,46,14,16.71,5.89,31.19,15.35,41.32,30.5,15,22.49,13.85,65.47-22.78,83.6-30.64,15.17-61.8,14.91-93.11,1.89-3.48-1.45-6.9-3.09-10.26-4.81S319.17,317.67,315.33,315.53Z"></path><path class="cls-zz" d="M227.39,282.5h28.9a25.17,25.17,0,0,1,.33,2.86c0,14-.07,28,.07,42,0,3-.87,3.87-3.9,3.86q-60.39-.15-120.79-.07c-1,0-2-.14-3.25-.23V282.48h8.84c5.74,0,11.47-.11,17.2,0,2.44.06,3.4-.48,3.39-3.19q-.13-49.9,0-99.79c0-2.52-.92-3.12-3.18-3.1-8.59.07-17.18,0-26.14,0V128.22a34.27,34.27,0,0,1,3.43-.32q60.21,0,120.44-.06c2.26,0,4,.1,3.94,3.2-.12,14.57-.05,29.13-.06,43.7a13.12,13.12,0,0,1-.26,1.69h-29Z"></path><path class="cls-zz" d="M461.94,87.93c2.17,5.13,4.48,10.58,6.78,16-4.64,1.69-6.21,1.1-8.1-3.1-1.46-3.24-3-6.46-4.32-9.74-.74-1.83-1.78-2.34-3.73-1.92a237.74,237.74,0,0,1-49.45,5.59c-2,0-2.62.81-2.55,2.68.1,2.26,0,4.53,0,7h-6.34c0-2.31-.09-4.46,0-6.59s-.58-3.1-2.88-3.15a233.3,233.3,0,0,1-49.36-6.34c-1.95-.48-2.95-.1-3.7,1.76-1.33,3.29-2.88,6.49-4.26,9.77-2.23,5.29-2.2,5.3-8.71,4.37,2.49-6,4.94-11.79,7.5-17.89-1.1-.44-1.91-.78-2.73-1.09-11.35-4.3-22.72-8.52-34-13-2-.77-3.1-.61-4.39,1-7.42,9.18-15.19,18.1-22.23,27.55-2.91,3.9-6,4.17-11.05,3.35L287.4,68.11c-2-1.11-4.09-2.17-6.07-3.43-5.12-3.25-10.28-6.47-15.24-10-2.31-1.63-3.87-1.73-6.18.15A231.44,231.44,0,0,0,216.45,101c-3,4.18-3.6,4.41-9.68,3.06a222.89,222.89,0,0,1,53.68-57.52C298.32,18,341.07,2.42,388.44.25,484.32-4.15,557.9,50.42,591,104.37c-4.27,1-7.25.11-10-3.92a216.18,216.18,0,0,0-43-45.63c-2.15-1.74-3.57-1.81-5.9-.25-6.76,4.52-13.74,8.69-20.64,13-1.06.66-2.14,1.27-3.42,2l27.33,34.31c-5.62,1.71-7.3,1.11-10.45-2.83-7-8.77-14.11-17.47-21.16-26.2-1-1.28-1.91-2.25-4-1.44C487.35,78.3,474.83,83,461.94,87.93ZM342.45,81.58a8,8,0,0,0,1.56.85,242,242,0,0,0,47.95,6c1.93,0,2.31-.82,2.3-2.47q0-23.53,0-47.07c0-1.85-.63-2.55-2.54-2.76-4.89-.53-9.78-1.18-14.6-2.12a4.13,4.13,0,0,0-4.87,2C364.6,47.2,356.78,58.34,349.2,69.65,346.68,73.4,344.72,77.53,342.45,81.58Zm109.48,1.28A16.63,16.63,0,0,0,450.82,80c-9.65-14.72-19.3-29.45-29.11-44.06-.6-.89-2.55-1.32-3.81-1.22C413.45,35,409,36,404.6,36.12c-3.1.11-4.05,1-4,4.15.16,15.11.06,30.23.07,45.35,0,.87.15,1.75.24,2.83A233.43,233.43,0,0,0,451.93,82.86ZM345.82,12.79C356.46,24.34,385.61,32,408.44,29.61c15.85-1.68,30.76-5.91,43.26-16.52A217.65,217.65,0,0,0,345.82,12.79ZM497,67.9c-.9-1.1-1.4-1.84-2-2.47-14.64-15-31.78-26.81-49.24-38.2a3.63,3.63,0,0,0-2.84-.44c-5,1.89-9.91,4-15.09,6.06.54.87.94,1.66,1.46,2.37,10.22,14.07,20.24,28.28,28.13,43.83,1,1.86,2.06,2.14,3.85,1.56,7.18-2.32,14.43-4.44,21.56-6.92C487.51,72.06,492.05,69.94,497,67.9ZM298.31,66.4a196.78,196.78,0,0,0,36,13.47c.71.19,2.16-.85,2.7-1.68,8.45-13.06,16.79-26.19,25.2-39.27,1.52-2.36,3.25-4.57,5-7-4.59-2-8.8-3.76-12.9-5.74a4.4,4.4,0,0,0-5,.39c-5.45,3.78-11.08,7.32-16.49,11.16C320.75,46.31,308.88,55.08,298.31,66.4ZM450.75,22.72c1.5,1,2.68,1.87,3.89,2.69,16.57,11.12,32.81,22.66,46.54,37.31,1.54,1.65,2.83,1.87,4.73.72,5.87-3.56,11.85-6.95,17.72-10.51,2-1.22,3.83-2.73,5.72-4.09-.41-.6-.5-.84-.68-1A219.31,219.31,0,0,0,462,15.42a3.68,3.68,0,0,0-2.81.39C456.42,17.86,453.86,20.13,450.75,22.72ZM268.62,47.62c0,.61,0,1.22,0,1.83,7.55,4.47,15.07,9,22.71,13.29.57.31,2.23-.64,3-1.41,11.18-11.63,24-21.22,37.17-30.42,4.56-3.19,9.19-6.27,14-9.57a43.5,43.5,0,0,1-4.59-3.87c-2.15-2.43-4.5-2.59-7.34-1.44-11.36,4.6-23,8.52-34,13.85C288.87,35.05,278.89,41.65,268.62,47.62Z"></path><path class="cls-zz" d="M207,355.39c4.3-1.16,7.14-.26,9.77,3.51a213.33,213.33,0,0,0,42.74,45.39c1.27,1,2.14,1.74,3.84.62,7.67-5,15.44-9.86,23.16-14.79a3.13,3.13,0,0,0,.62-.74L260,355.49c5.4-1.4,8.54,0,11.51,4,6.45,8.61,13.55,16.73,20.34,25.08,1.2,1.47,2.27,1.67,4.12,1,11.73-4.53,23.54-8.89,35.32-13.33a12.87,12.87,0,0,0,1.57-.88q-3.31-7.84-6.62-15.65c5-1.61,6.23-1.12,8.19,3.22,1.18,2.6,2.51,5.16,3.48,7.84s2.45,3.15,5.24,2.48a228.89,228.89,0,0,1,46.61-6.08c3.57-.11,5.08-1,4.55-4.66a15.6,15.6,0,0,1,.2-3.23h5.93c.14,2.42.29,4.77.45,7.45,1.2.11,2.3.27,3.41.28A248,248,0,0,1,452,368.46c2.43.52,3.61.05,4.45-2.19s2-4.4,2.9-6.61c2.25-5.24,2.24-5.24,8.65-4.3-2.08,5-4.11,9.89-6.31,15.19,4.92,1.52,9.64,2.74,14.19,4.42,7.63,2.8,15.22,5.75,22.7,8.93,2.46,1.05,3.92.73,5.52-1.26,6.3-7.88,12.95-15.49,18.92-23.61,2.87-3.89,6-4.77,11.11-3.52l-26,32.63c1.88,1.1,3.74,2.12,5.53,3.25,6.77,4.29,13.59,8.51,20.24,13,2,1.35,3.16,1.27,5-.24A226.24,226.24,0,0,0,582.5,357.2c2.36-3.44,5.45-1.83,9.25-2.29a230.47,230.47,0,0,1-75.24,72.38,225.36,225.36,0,0,1-98.64,31.57C320.16,466.76,242.64,412.77,207,355.39Zm135.6,20.07A10.72,10.72,0,0,0,343,377c8.46,16.33,19.14,31.2,30.21,45.8a4.12,4.12,0,0,0,3.22,1c5-.52,10-1.39,15-1.87,2.18-.21,2.94-1,2.93-3.17-.06-15.47-.09-30.95,0-46.42,0-2.6-.95-3.08-3.25-2.87-8.9.81-17.83,1.24-26.69,2.31C357.14,372.58,350,374.16,342.63,375.46Zm111.42,71.05c-27.6-26.12-87.41-23.23-109.73,0C380.93,455.57,417.17,455.46,454.05,446.51ZM452,375.66c-.52-.52-.66-.78-.84-.82a222.67,222.67,0,0,0-48.73-5.5c-.61,0-1.75,1.35-1.76,2.07-.08,15.71,0,31.41-.06,47.12,0,2.42.91,3.07,3.25,3.17A97.41,97.41,0,0,1,417.16,423c2.55.47,4.06,0,5.48-2.11,7.33-10.8,14.85-21.48,22.07-32.34C447.47,384.43,449.62,379.89,452,375.66Zm-24.39,49.46,5,1.7c1.63.56,3.45.83,4.83,1.76,4.86,3.3,8.77,2.21,13.44-1.09,14.69-10.37,29.52-20.52,42.37-33.22,1.26-1.24,2.4-2.59,3.57-3.86-.47-.5-.59-.74-.77-.81-11.73-4.2-23.45-8.45-35.24-12.48-.82-.28-2.67.83-3.27,1.78-6,9.49-11.62,19.17-17.64,28.62C436.1,413.38,431.91,418.94,427.59,425.12Zm-60.66.79a4.48,4.48,0,0,0-.37-1.17c-10.76-14.55-21.23-29.29-29.65-45.38a3.55,3.55,0,0,0-3.19-1.18q-11.78,3.74-23.42,7.9c-3.92,1.42-7.68,3.27-11.87,5.08a35.72,35.72,0,0,0,2.33,2.82c14.94,14.73,32.14,26.51,49.62,37.91a2.5,2.5,0,0,0,1.87.47C357.17,430.27,362,428.08,366.93,425.91Zm163.66-15.2.17-1.57C522,404,513.27,398.8,504.45,393.78c-.57-.33-2.15.34-2.78,1-14,14.54-30.2,26.32-46.88,37.5-1.29.86-2.54,1.78-4.05,2.84,3,2.41,5.81,4.23,8,6.62,2.07,2.22,4,2.41,6.66,1.54A220.13,220.13,0,0,0,511.21,423C517.77,419.05,524.14,414.81,530.59,410.71ZM345.33,436.4c-1.2-.85-2.09-1.52-3-2.13-16.12-10.72-31.86-21.91-45.77-35.49-5.39-5.26-3.39-5-9.8-1.39-6.62,3.74-12.94,8-19.28,12,.38.93.4,1.22.55,1.33a217.55,217.55,0,0,0,66.33,33,4.37,4.37,0,0,0,3.39-.69C340.25,441.09,342.55,438.86,345.33,436.4Z"></path></g></g></svg>