<svg xmlns="http://www.w3.org/2000/svg" xmlns:xlink="http://www.w3.org/1999/xlink" viewBox="0 0 40 100"><defs><style>.cls-1{fill:#0056bc;}.cls-1,.cls-10,.cls-11,.cls-17,.cls-18,.cls-24,.cls-25,.cls-6,.cls-7,.cls-8,.cls-9{fill-rule:evenodd;}.cls-2{fill:#3e4095;}.cls-3{fill:#333b76;}.cls-4{fill:url(#GradientFill_7);}.cls-5{fill:#a9abae;}.cls-10,.cls-11,.cls-12,.cls-13,.cls-14,.cls-15,.cls-16,.cls-17,.cls-18,.cls-19,.cls-20,.cls-21,.cls-22,.cls-23,.cls-24,.cls-25,.cls-6,.cls-7,.cls-8,.cls-9{opacity:0.5;}.cls-6{fill:url(#GradientFill_8);}.cls-7{fill:url(#GradientFill_8-2);}.cls-8{fill:url(#GradientFill_8-3);}.cls-9{fill:url(#GradientFill_8-4);}.cls-10{fill:url(#GradientFill_8-5);}.cls-11{fill:url(#GradientFill_8-6);}.cls-12{fill:url(#GradientFill_8-7);}.cls-13{fill:url(#GradientFill_8-8);}.cls-14{fill:url(#GradientFill_8-9);}.cls-15{fill:url(#GradientFill_8-10);}.cls-16{fill:url(#GradientFill_8-11);}.cls-17{fill:url(#GradientFill_8-12);}.cls-18{fill:url(#GradientFill_8-13);}.cls-19{fill:url(#GradientFill_8-14);}.cls-20{fill:url(#GradientFill_8-15);}.cls-21{fill:url(#GradientFill_8-16);}.cls-22{fill:url(#GradientFill_8-17);}.cls-23{fill:url(#GradientFill_8-18);}.cls-24{fill:url(#GradientFill_8-19);}.cls-25{fill:url(#GradientFill_8-20);}.cls-26{fill:#00afef;}</style><linearGradient id="GradientFill_7" x1="27.24" y1="60.26" x2="5" y2="60.26" gradientUnits="userSpaceOnUse"><stop offset="0" stop-color="#cbcaca"/><stop offset="0.49" stop-color="#fff"/><stop offset="1" stop-color="#cbcaca"/></linearGradient><linearGradient id="GradientFill_8" x1="31.52" y1="29.19" x2="31.71" y2="30.22" gradientUnits="userSpaceOnUse"><stop offset="0" stop-color="#1b1b1b"/><stop offset="0.52" stop-color="#5e5f5f"/><stop offset="1" stop-color="#1b1b1b"/></linearGradient><linearGradient id="GradientFill_8-2" x1="27.88" y1="16.72" x2="28.27" y2="17.73" xlink:href="#GradientFill_8"/><linearGradient id="GradientFill_8-3" x1="20.78" y1="4.25" x2="21.43" y2="5.14" xlink:href="#GradientFill_8"/><linearGradient id="GradientFill_8-4" x1="0.92" y1="29.19" x2="0.72" y2="30.22" xlink:href="#GradientFill_8"/><linearGradient id="GradientFill_8-5" x1="4.56" y1="16.72" x2="4.15" y2="17.72" xlink:href="#GradientFill_8"/><linearGradient id="GradientFill_8-6" x1="11.66" y1="4.25" x2="10.99" y2="5.14" xlink:href="#GradientFill_8"/><linearGradient id="GradientFill_8-7" x1="0.57" y1="39.76" x2="0.55" y2="40.85" xlink:href="#GradientFill_8"/><linearGradient id="GradientFill_8-8" x1="0.57" y1="50.09" x2="0.55" y2="51.19" xlink:href="#GradientFill_8"/><linearGradient id="GradientFill_8-9" x1="0.57" y1="60.43" x2="0.55" y2="61.53" xlink:href="#GradientFill_8"/><linearGradient id="GradientFill_8-10" x1="0.57" y1="70.77" x2="0.55" y2="71.86" xlink:href="#GradientFill_8"/><linearGradient id="GradientFill_8-11" x1="0.57" y1="81.11" x2="0.55" y2="82.2" xlink:href="#GradientFill_8"/><linearGradient id="GradientFill_8-12" x1="1.46" y1="89.7" x2="1.64" y2="90.73" xlink:href="#GradientFill_8"/><linearGradient id="GradientFill_8-13" x1="3.26" y1="99.31" x2="3.44" y2="100.34" xlink:href="#GradientFill_8"/><linearGradient id="GradientFill_8-14" x1="31.95" y1="39.76" x2="31.95" y2="40.85" xlink:href="#GradientFill_8"/><linearGradient id="GradientFill_8-15" x1="31.95" y1="50.09" x2="31.95" y2="51.19" xlink:href="#GradientFill_8"/><linearGradient id="GradientFill_8-16" x1="31.95" y1="60.43" x2="31.95" y2="61.53" xlink:href="#GradientFill_8"/><linearGradient id="GradientFill_8-17" x1="31.95" y1="70.77" x2="31.95" y2="71.86" xlink:href="#GradientFill_8"/><linearGradient id="GradientFill_8-18" x1="31.95" y1="81.11" x2="31.95" y2="82.2" xlink:href="#GradientFill_8"/><linearGradient id="GradientFill_8-19" x1="31.07" y1="89.7" x2="30.87" y2="90.73" xlink:href="#GradientFill_8"/><linearGradient id="GradientFill_8-20" x1="29.27" y1="99.31" x2="29.07" y2="100.34" xlink:href="#GradientFill_8"/></defs><g id="Layer_2" data-name="Layer 2"><g id="Layer_1-2" data-name="Layer 1"><path class="cls-1" d="M26.41,110.91H6.1L1.15,85.1V31.84C3,20,7.38,9.08,16.26,0c8.87,9.08,13.21,20,15.1,31.84V85.1Z"/><rect class="cls-2" x="6.92" y="94.71" width="18.39" height="11.61"/><rect class="cls-3" x="8.29" y="16.74" width="15.65" height="9.33"/><rect class="cls-4" x="5" y="27.72" width="22.24" height="65.07"/><rect class="cls-5" x="8.98" y="17.4" width="14.28" height="8.02"/><rect class="cls-5" x="7.35" y="95.19" width="17.54" height="10.65"/><path class="cls-6" d="M32,31.77h0a.52.52,0,0,1-.61-.42l-.58-3.1a.52.52,0,0,1,.42-.61h0a.53.53,0,0,1,.61.42l.58,3.1A.52.52,0,0,1,32,31.77Z"/><path class="cls-7" d="M28.83,19.18h0a.53.53,0,0,1-.68-.31L27,15.94a.53.53,0,0,1,.3-.68h0a.53.53,0,0,1,.68.3l1.13,3A.51.51,0,0,1,28.83,19.18Z"/><path class="cls-8" d="M22.35,6.39h0a.54.54,0,0,1-.74-.11L19.75,3.74A.54.54,0,0,1,19.86,3h0a.54.54,0,0,1,.74.11l1.86,2.55A.52.52,0,0,1,22.35,6.39Z"/><path class="cls-9" d="M.43,31.77h0A.52.52,0,0,0,1,31.35l.59-3.1a.53.53,0,0,0-.42-.61h0a.54.54,0,0,0-.62.42L0,31.16A.52.52,0,0,0,.43,31.77Z"/><path class="cls-10" d="M3.6,19.18h0a.53.53,0,0,0,.68-.31l1.13-2.94a.52.52,0,0,0-.3-.68h0a.53.53,0,0,0-.68.3l-1.13,3A.52.52,0,0,0,3.6,19.18Z"/><path class="cls-11" d="M10.08,6.39h0a.54.54,0,0,0,.74-.11l1.86-2.54A.53.53,0,0,0,12.57,3h0a.52.52,0,0,0-.73.11L10,5.66A.52.52,0,0,0,10.08,6.39Z"/><rect class="cls-12" x="0.03" y="38.2" width="1.05" height="4.2" rx="0.53"/><path class="cls-13" d="M.56,48.54h0a.53.53,0,0,1,.53.53v3.15a.52.52,0,0,1-.52.52h0A.53.53,0,0,1,0,52.22V49.06A.52.52,0,0,1,.56,48.54Z"/><path class="cls-14" d="M.56,58.88h0a.53.53,0,0,1,.53.53v3.15a.52.52,0,0,1-.52.52h0A.53.53,0,0,1,0,62.56V59.4A.52.52,0,0,1,.56,58.88Z"/><rect class="cls-15" x="0.03" y="69.22" width="1.05" height="4.2" rx="0.53"/><rect class="cls-16" x="0.03" y="79.55" width="1.05" height="4.2" rx="0.53"/><path class="cls-17" d="M1.94,92.28h0a.53.53,0,0,0,.42-.61l-.59-3.1a.53.53,0,0,0-.62-.42h0a.52.52,0,0,0-.41.61l.59,3.1A.52.52,0,0,0,1.94,92.28Z"/><path class="cls-18" d="M3.74,101.89h0a.53.53,0,0,0,.42-.62l-.59-3.09A.52.52,0,0,0,3,97.76H3a.52.52,0,0,0-.42.61l.59,3.1A.52.52,0,0,0,3.74,101.89Z"/><path class="cls-19" d="M32,38.2h0a.53.53,0,0,1,.53.53v3.15a.53.53,0,0,1-.53.53h0a.53.53,0,0,1-.53-.53V38.72A.52.52,0,0,1,32,38.2Z"/><path class="cls-20" d="M32,48.54h0a.53.53,0,0,1,.53.53v3.15a.52.52,0,0,1-.52.52h0a.53.53,0,0,1-.53-.53V49.06A.52.52,0,0,1,32,48.54Z"/><path class="cls-21" d="M32,58.88h0a.53.53,0,0,1,.53.53v3.15a.52.52,0,0,1-.52.52h0a.53.53,0,0,1-.53-.53V59.4a.52.52,0,0,1,.52-.52Z"/><path class="cls-22" d="M32,69.22h0a.53.53,0,0,1,.53.53V72.9a.52.52,0,0,1-.52.52h0a.53.53,0,0,1-.53-.53V69.74a.52.52,0,0,1,.52-.52Z"/><rect class="cls-23" x="31.43" y="79.55" width="1.05" height="4.2" rx="0.53"/><path class="cls-24" d="M30.58,92.28h0a.52.52,0,0,1-.41-.61l.59-3.1a.52.52,0,0,1,.61-.42h0a.53.53,0,0,1,.42.61l-.59,3.1A.52.52,0,0,1,30.58,92.28Z"/><path class="cls-25" d="M28.77,101.89h0a.53.53,0,0,1-.41-.62l.58-3.09a.53.53,0,0,1,.62-.42h0a.53.53,0,0,1,.42.61l-.59,3.1A.53.53,0,0,1,28.77,101.89Z"/><rect class="cls-26" x="5.06" y="46.07" width="22.09" height="0.43"/><rect class="cls-26" x="5.06" y="60.35" width="22.09" height="0.43"/><rect class="cls-26" x="5.06" y="74.43" width="22.09" height="0.43"/></g></g></svg>