<svg xmlns="http://www.w3.org/2000/svg" viewBox="0 0 76.88 48.21">
                          <defs>
                              <style>
                                  .cls-1 {
                                      font-size: 14.12px;
                                      font-family: UTM_neo_sans_intel;
                                      font-weight: 700;
                                  }
                
                                  .cls-1,
                                  .cls-2 {
                                   
                                  }
                              </style>
                          </defs>
                          <g id="Layer_2" data-name="Layer 2">
                              <g id="Layer_1-2" data-name="Layer 1"><text class="cls-1" transform="translate(0 44.39)">13396:2021</text>
                                  <path class="cls-2" d="M12.94,2.64V0h51a.41.41,0,0,1,0,.11V2.54c0,.13,0,.14-.14.11H12.94Z"></path>
                                  <path class="cls-2" d="M63.94,24h-51V21.44a.13.13,0,0,1,.13-.13H63.74c.2,0,.2,0,.2.21V24Z"></path>
                                  <path class="cls-2" d="M56.48,10.92v.15c0,2.58,0,5.17,0,7.75,0,.2-.12.29-.24.4h-2.1a.17.17,0,0,1-.14-.05c-.18-.17-.18-.17-.18-.42q0-6.81,0-13.61c0-.19.14-.27.24-.38H56.5l4.35,8.53h0s0-.08,0-.12v-8a.3.3,0,0,1,0-.14,2.28,2.28,0,0,1,.22-.22h2.09a.21.21,0,0,1,.16.07c.16.16.17.16.17.41,0,4.52,0,9,0,13.58a.49.49,0,0,1-.23.39s-.08,0-.12,0H60.94a.2.2,0,0,1-.2-.12l-2.86-5.58L56.59,11a.75.75,0,0,1-.07-.12Z"></path>
                                  <path class="cls-2" d="M36.63,14.56c-.06.25-.11.48-.17.71a7.44,7.44,0,0,1-.93,2.12,4.4,4.4,0,0,1-2.08,1.73,4.71,4.71,0,0,1-1.53.33,5.21,5.21,0,0,1-2-.23,4.91,4.91,0,0,1-2.11-1.39,6.69,6.69,0,0,1-1.47-2.72,10.11,10.11,0,0,1-.34-2,15.35,15.35,0,0,1,0-2.35,9,9,0,0,1,.75-2.94,5.71,5.71,0,0,1,1.85-2.31,4.65,4.65,0,0,1,2.26-.89,5.36,5.36,0,0,1,2.22.14,4.54,4.54,0,0,1,2.75,2.19,7.42,7.42,0,0,1,.73,2,.13.13,0,0,0,0,.06l-.12,0-2.29.66a.26.26,0,0,1-.24,0,.44.44,0,0,1-.24-.32,2.62,2.62,0,0,0-.45-1,2,2,0,0,0-1.34-.88,2.23,2.23,0,0,0-2.09.74,3,3,0,0,0-.68,1.29,6.82,6.82,0,0,0-.24,1.35,13.53,13.53,0,0,0,0,1.91,7.69,7.69,0,0,0,.36,2.08A2.88,2.88,0,0,0,30,16a2.06,2.06,0,0,0,2.24.44,2,2,0,0,0,1-.81,4.2,4.2,0,0,0,.53-1.23c0-.17.08-.34.11-.5a.19.19,0,0,1,.1-.14c.24-.14.23-.14.48,0l2.1.8Z"></path>
                                  <path class="cls-2" d="M46.44,19.23H43.58a1.42,1.42,0,0,1,0-.16Q41.46,12.14,39.4,5.23a.33.33,0,0,1,.06-.3.37.37,0,0,1,.35-.17h2.51l2.75,9.65h0v0h0l0-.11q1.29-4.73,2.6-9.45s0,0,0,0l0,0h2.55a.21.21,0,0,1,.17.08.42.42,0,0,1,.09.49L46.48,19.09C46.47,19.14,46.45,19.18,46.44,19.23Z"></path>
                                  <path class="cls-2" d="M19.48,7.61V7.8q0,5.52,0,11c0,.19-.13.27-.24.38s-.06,0-.09,0H17a.17.17,0,0,1-.15-.06c-.18-.17-.18-.17-.18-.42V7.61H13.59c-.2,0-.27-.14-.38-.25s0-.06,0-.09V5.08A.17.17,0,0,1,13.25,5c.18-.19.18-.19.43-.19h8.88c.19,0,.26.14.36.24s0,.06,0,.09c0,.73,0,1.46,0,2.19a.21.21,0,0,1-.07.16.39.39,0,0,1-.4.16h-3Z"></path>
                              </g>
                          </g>
                      </svg>